<svg preserveAspectRatio="xMidYMid meet" width="100%" height="100%" overflow="visible" style="display: block;" viewBox="0 0 18.6875 1.99505" fill="none" xmlns="http://www.w3.org/2000/svg">
<g id="vector">
<path d="M1.13929 0.762966H1.6909V0H2.83019V1.99505H1.6909V1.22178H1.13929V1.99505H0V0H1.13929V0.762966Z" fill="var(--fill-0, black)"/>
<path d="M4.41797 1.62646C4.6216 1.62646 4.70408 1.46922 4.70408 1.33261V0H5.84338V1.35066C5.84338 1.55428 5.6681 1.99505 5.01597 1.99505H3.82255C3.17042 1.99505 2.99514 1.55171 2.99514 1.35066V0H4.13444V1.33261C4.13444 1.46922 4.21692 1.62646 4.41797 1.62646Z" fill="var(--fill-0, black)"/>
<path d="M7.74565 0.809362L7.29458 0H5.99032V1.99505H7.03682V1.13929L7.50594 1.99505H7.98279L8.45191 1.13929V1.99505H9.49841V0H8.19415L7.74565 0.809362Z" fill="var(--fill-0, black)"/>
<path d="M10.9522 0L11.4007 0.809362L11.8517 0H13.156V1.99505H12.1095V1.13929L11.6404 1.99505H11.1635L10.6944 1.13929V1.99505H9.64532V0H10.9522Z" fill="var(--fill-0, black)"/>
<path d="M13.2849 1.99505H15.5093V1.44345H14.4603V1.22178H15.5093V0.762966H14.4603V0.551603H15.5093V0H13.2849V1.99505Z" fill="var(--fill-0, black)"/>
<path fill-rule="evenodd" clip-rule="evenodd" d="M17.9245 0C18.3653 0 18.5225 0.414992 18.5225 0.66244C18.5225 0.909888 18.3292 1.29653 18.0895 1.28622L18.6875 1.99248H17.2827L16.7956 1.41252V1.99248H15.6563V0H17.9245ZM16.7956 0.920199H17.1074C17.4013 0.920199 17.4271 0.469121 17.1435 0.469121H16.7956V0.920199Z" fill="var(--fill-0, black)"/>
</g>
</svg>
