<svg width="24" height="24" viewBox="0 0 24 24" fill="none" xmlns="http://www.w3.org/2000/svg">
<path fill-rule="evenodd" clip-rule="evenodd" d="M12.79 4.3291C13.3758 4.43078 13.9076 4.60584 14.3848 4.85742C15.1856 5.26514 15.8192 5.83345 16.2852 6.56152C16.7656 7.28956 17.0642 8.1199 17.1807 9.05176L15.2363 9.18262C15.1635 8.57104 14.9747 8.02447 14.6689 7.54395C14.3633 7.06362 13.9408 6.69273 13.4023 6.43066C13.2135 6.33101 13.0091 6.24931 12.79 6.18555V11.3008C13.8634 11.5969 14.7299 11.9391 15.3896 12.3271C16.1468 12.7494 16.6855 13.2525 17.0059 13.835C17.3261 14.4027 17.4863 15.0505 17.4863 15.7783C17.4863 16.652 17.2531 17.417 16.7871 18.0723C16.3357 18.7128 15.7099 19.2151 14.9092 19.5791C14.2758 19.8555 13.5692 20.0203 12.79 20.0781V21.7197H11.1738V20.0449C10.4094 19.9546 9.71714 19.7575 9.09863 19.4482C8.23965 18.9969 7.55549 18.3849 7.0459 17.6133C6.53634 16.8271 6.23779 15.9244 6.15039 14.9053L8.07227 14.7744C8.17422 15.5314 8.39269 16.1722 8.72754 16.6963C9.07697 17.2204 9.53574 17.6208 10.1035 17.8975C10.4246 18.042 10.7819 18.1441 11.1738 18.209V12.7295C10.0296 12.427 9.11194 12.1048 8.42188 11.7598C7.723 11.3958 7.22082 10.9588 6.91504 10.4492C6.62384 9.92506 6.47757 9.28443 6.47754 8.52734C6.47754 7.68278 6.68212 6.93953 7.08984 6.29883C7.49755 5.64375 8.07295 5.13447 8.81543 4.77051C9.48705 4.44764 10.2731 4.26792 11.1738 4.23145V2.28027H12.79V4.3291ZM12.79 18.2676C13.2532 18.2317 13.6612 18.1527 14.0137 18.0283C14.523 17.8391 14.9088 17.5699 15.1709 17.2207C15.4329 16.8568 15.5644 16.4196 15.5645 15.9102C15.5645 15.4296 15.4547 15.0066 15.2363 14.6426C15.0178 14.2787 14.5956 13.9434 13.9697 13.6377C13.6516 13.4824 13.2585 13.3283 12.79 13.1768V18.2676ZM11.1738 6.02344C10.3704 6.06773 9.72274 6.29088 9.23047 6.69238C8.67714 7.14379 8.40039 7.73384 8.40039 8.46191C8.40044 8.92754 8.50935 9.32042 8.72754 9.64062C8.94596 9.94641 9.33933 10.2162 9.90723 10.4492C10.2473 10.5853 10.6699 10.7242 11.1738 10.8701V6.02344Z" fill="#0F172B"/>
</svg>
