<svg width="24" height="24" viewBox="0 0 24 24" fill="none" xmlns="http://www.w3.org/2000/svg">
<path d="M17.75 14.5C18.1642 14.5 18.5 14.8358 18.5 15.25C18.5 15.6642 18.1642 16 17.75 16H6.25C5.83579 16 5.5 15.6642 5.5 15.25C5.5 14.8358 5.83579 14.5 6.25 14.5H17.75Z" fill="#0F172B"/>
<path d="M9.25 8C9.66421 8 10 8.33579 10 8.75V12C10 12.3087 9.81084 12.5857 9.52344 12.6982C9.23591 12.8107 8.90869 12.7355 8.69922 12.5088L7 10.668V12C7 12.4142 6.66421 12.75 6.25 12.75C5.83579 12.75 5.5 12.4142 5.5 12V8.75C5.5 8.44132 5.68916 8.1643 5.97656 8.05176C6.26409 7.93934 6.59131 8.01445 6.80078 8.24121L8.5 10.082V8.75C8.5 8.33579 8.83579 8 9.25 8Z" fill="#0F172B"/>
<path d="M17.75 11.25C18.1642 11.25 18.5 11.5858 18.5 12C18.5 12.4142 18.1642 12.75 17.75 12.75H12.75C12.3358 12.75 12 12.4142 12 12C12 11.5858 12.3358 11.25 12.75 11.25H17.75Z" fill="#0F172B"/>
<path d="M17.75 8C18.1642 8 18.5 8.33579 18.5 8.75C18.5 9.16421 18.1642 9.5 17.75 9.5H12.75C12.3358 9.5 12 9.16421 12 8.75C12 8.33579 12.3358 8 12.75 8H17.75Z" fill="#0F172B"/>
<path fill-rule="evenodd" clip-rule="evenodd" d="M19.25 4C20.7688 4 22 5.23122 22 6.75V17.25C22 18.7688 20.7688 20 19.25 20H4.75C3.23122 20 2 18.7688 2 17.25V6.75C2 5.23122 3.23122 4 4.75 4H19.25ZM4.75 5.5C4.05964 5.5 3.5 6.05964 3.5 6.75V17.25C3.5 17.9404 4.05964 18.5 4.75 18.5H19.25C19.9404 18.5 20.5 17.9404 20.5 17.25V6.75C20.5 6.05964 19.9404 5.5 19.25 5.5H4.75Z" fill="#0F172B"/>
</svg>
