<svg width="24" height="24" viewBox="0 0 24 24" fill="none" xmlns="http://www.w3.org/2000/svg">
<path fill-rule="evenodd" clip-rule="evenodd" d="M12.7412 2C13.9689 2 15.0483 2.81373 15.3857 3.99414L19.8154 19.5H21.25C21.6642 19.5 22 19.8358 22 20.25C22 20.6642 21.6642 21 21.25 21H2.75C2.33579 21 2 20.6642 2 20.25C2 19.8358 2.33579 19.5 2.75 19.5H4.18457L8.61426 3.99414C8.95167 2.81373 10.0311 2 11.2588 2H12.7412ZM5.74512 19.5H18.2549L16.9697 15H7.03027L5.74512 19.5ZM7.45898 13.5H16.541L15.6846 10.5H8.31543L7.45898 13.5ZM11.2588 3.5C10.7008 3.5 10.2101 3.86979 10.0566 4.40625L8.74414 9H15.2559L13.9434 4.40625C13.7899 3.86979 13.2992 3.5 12.7412 3.5H11.2588Z" fill="#0F172B"/>
</svg>
