<svg width="24" height="24" viewBox="0 0 24 24" fill="none" xmlns="http://www.w3.org/2000/svg">
<path fill-rule="evenodd" clip-rule="evenodd" d="M12.0002 11.9893C12.3065 11.9893 12.5999 12.1127 12.8167 12.3291C13.0333 12.5457 13.1563 12.8392 13.1565 13.1455C13.1565 13.3741 13.0882 13.598 12.9612 13.7881C12.8342 13.9781 12.6528 14.1264 12.4417 14.2139C12.231 14.3009 11.9992 14.3245 11.7756 14.2803C11.5519 14.2357 11.3453 14.125 11.1838 13.9639C11.0225 13.8024 10.9121 13.5959 10.8674 13.3721C10.8229 13.1481 10.8446 12.9151 10.9319 12.7041C11.0193 12.493 11.1677 12.3116 11.3577 12.1846C11.5476 12.0576 11.7718 11.9893 12.0002 11.9893ZM12.6116 13.8789C12.6459 13.8506 12.6793 13.8212 12.7092 13.7881L12.7952 13.6768C12.9001 13.5196 12.9553 13.3344 12.9553 13.1455C12.9551 12.8922 12.8551 12.6488 12.676 12.4697C12.6614 12.4552 12.6446 12.4432 12.6292 12.4297C12.6444 12.4431 12.6606 12.4562 12.6751 12.4707C12.8541 12.6499 12.9553 12.8921 12.9553 13.1455C12.9553 13.3345 12.8992 13.5206 12.7942 13.6777C12.7433 13.7538 12.681 13.8208 12.6116 13.8789ZM11.6721 12.25C11.6013 12.2758 11.5323 12.3083 11.469 12.3506C11.458 12.3579 11.4484 12.3672 11.4377 12.375C11.4481 12.3675 11.4574 12.3587 11.468 12.3516C11.5318 12.3089 11.6008 12.276 11.6721 12.25ZM12.1663 12.2051C12.1867 12.2087 12.2067 12.2138 12.2268 12.2188C12.2139 12.2156 12.2009 12.2106 12.1877 12.208L12.1663 12.2051Z" fill="#0F172B"/>
<path fill-rule="evenodd" clip-rule="evenodd" d="M12.0002 2.0498C14.638 2.0529 17.1682 3.10072 19.0335 4.96582C20.8987 6.83106 21.9463 9.36118 21.9495 11.999C21.9495 13.9667 21.3668 15.8902 20.2737 17.5264C19.1805 19.1624 17.6267 20.4393 15.8088 21.1924C13.9908 21.9454 11.9888 22.1427 10.0588 21.7588C8.12893 21.3748 6.3565 20.4256 4.96509 19.0342C3.57373 17.6427 2.62439 15.8704 2.24048 13.9404C1.85662 12.0104 2.05384 10.0085 2.80689 8.19043C3.55997 6.37261 4.8369 4.8188 6.47291 3.72559C8.10893 2.63258 10.0327 2.04989 12.0002 2.0498ZM4.2522 13.2285C4.02721 13.4286 3.80738 13.635 3.59791 13.8525C3.64473 14.0666 3.69985 14.277 3.76197 14.4844H8.40943C8.68178 14.4853 8.94739 14.5693 9.17115 14.7246C9.39495 14.88 9.56625 15.0996 9.66236 15.3545L11.6223 20.5938C11.7475 20.6024 11.875 20.6025 11.9993 20.6025L11.6233 20.5928L9.66431 15.3545C9.56819 15.0997 9.39585 14.8789 9.17212 14.7236C8.94856 14.5688 8.68238 14.4843 8.41041 14.4834H3.76392L3.59986 13.8525C3.80894 13.6354 4.02772 13.4283 4.2522 13.2285ZM15.5881 15.6338C15.5492 15.6337 15.5108 15.6448 15.4788 15.667C15.4466 15.6892 15.4221 15.7212 15.4085 15.7578L13.6526 20.4414C13.704 20.4312 13.7547 20.4174 13.8059 20.4062C13.7555 20.4172 13.7052 20.4304 13.6545 20.4404L15.4104 15.7568C15.4241 15.7207 15.4489 15.689 15.4807 15.667C15.4964 15.6562 15.5136 15.6473 15.5315 15.6416L15.5901 15.6338H15.5881ZM12.0002 10.4795C10.4586 10.4796 8.93254 10.7901 7.51392 11.3936C6.12944 11.9825 4.87403 12.8379 3.82056 13.9111C3.8498 14.0366 3.88337 14.1607 3.91822 14.2842H8.41236C8.72491 14.2854 9.03054 14.3814 9.28736 14.5596C9.54432 14.738 9.74141 14.9915 9.85181 15.2842L11.762 20.3955C11.8395 20.3977 11.9189 20.4014 12.0002 20.4014C12.0771 20.4014 12.1542 20.3978 12.2307 20.3955L14.1487 15.2822C14.2586 14.9892 14.456 14.736 14.7131 14.5576C14.9704 14.3794 15.2772 14.2843 15.5901 14.2842H20.0823C20.1171 14.1608 20.1488 14.0366 20.178 13.9111C19.1247 12.8384 17.8707 11.9823 16.4866 11.3936C15.0679 10.7902 13.5419 10.4795 12.0002 10.4795ZM13.971 20.1611C15.1356 19.8777 16.2299 19.3529 17.176 18.6123C18.1342 17.862 18.915 16.9127 19.471 15.833H15.596L13.971 20.1611ZM4.52759 15.8311C5.08321 16.9103 5.86315 17.8601 6.82056 18.6104C7.76541 19.3506 8.85844 19.875 10.0217 20.1592L8.40259 15.8311H4.52759ZM19.7219 17.9463C19.2766 18.5246 18.7711 19.0505 18.2122 19.5127C18.7544 19.0647 19.2484 18.5584 19.6838 18.001L19.7219 17.9463ZM4.20142 15.6318C4.67857 16.6515 5.35273 17.5629 6.17798 18.3223C5.35344 17.563 4.68028 16.6509 4.20337 15.6318H4.20142ZM21.7258 12.6533C21.6116 14.3515 21.0555 15.9945 20.1057 17.416C20.0961 17.4304 20.0851 17.4437 20.0754 17.458L20.1077 17.415C21.0447 16.0123 21.5988 14.3939 21.7229 12.7197L21.7258 12.6533ZM15.387 14.499C15.3781 14.5004 15.3694 14.5024 15.3606 14.5039C15.3765 14.5012 15.3925 14.4992 15.4085 14.4971L15.387 14.499ZM15.5901 14.4834L15.5667 14.4844H20.2356L15.5901 14.4834ZM3.39576 11.999C3.39576 12.148 3.39603 12.2953 3.40748 12.4424L3.39576 11.999ZM19.6936 11.7031C20.0024 11.9349 20.3014 12.1817 20.5901 12.4424V12.4404C20.3016 12.1801 20.0021 11.9346 19.6936 11.7031ZM21.7493 11.999C21.7493 12.0123 21.7484 12.0258 21.7483 12.0391L21.7493 11.999ZM12.0002 3.59668C9.77181 3.5968 7.6346 4.48186 6.05884 6.05762C4.48311 7.63343 3.59794 9.77055 3.59791 11.999C3.59791 12.0035 3.5979 12.0082 3.59791 12.0127C5.94409 10.0301 8.91944 8.93478 12.0002 8.93066L12.6038 8.94629C15.4675 9.08253 18.2081 10.1605 20.4006 12.0127C20.4007 12.0082 20.4026 12.0036 20.4026 11.999C20.4026 9.77047 19.5175 7.63345 17.9417 6.05762C16.3658 4.48194 14.2287 3.59668 12.0002 3.59668ZM10.8752 10.334C9.69242 10.4485 8.53143 10.7421 7.43384 11.209C7.29375 11.2686 7.15621 11.3335 7.0188 11.3984L7.4358 11.21C8.53281 10.7433 9.69315 10.4489 10.8752 10.334ZM15.0754 10.6953C15.5815 10.8339 16.0797 11.0037 16.5647 11.21C16.6399 11.242 16.7139 11.278 16.7883 11.3115C16.7134 11.2778 16.6394 11.2412 16.5637 11.209C16.0791 11.0028 15.5812 10.8337 15.0754 10.6953ZM11.9993 9.13184C12.395 9.13236 12.7889 9.14992 13.1799 9.18652C12.9855 9.16834 12.7898 9.15482 12.594 9.14551L11.9993 9.13184ZM18.8899 5.1084C19.5696 5.78813 20.1383 6.558 20.5852 7.38965C20.2135 6.69794 19.759 6.04782 19.2249 5.45801L18.8899 5.1084Z" fill="#0F172B"/>
</svg>
